# Blender v2.93.1 OBJ File: ''
# www.blender.org
mtllib Hex_Logo_Flat.mtl
o Cylinder.003_Cylinder.004
v -0.457779 0.040851 -0.917332
v -0.472009 0.040503 -0.946094
v -0.766735 0.070370 -0.698074
v -0.788597 0.070751 -0.721420
v 0.377851 0.072361 -0.891888
v 0.390533 0.073028 -0.919832
v 0.068895 0.101880 -0.672630
v 0.073946 0.103276 -0.695158
v 0.938196 0.071829 -0.082881
v 0.968924 0.072480 -0.084769
v 0.629240 0.101348 0.136377
v 0.652337 0.102728 0.139904
v 0.662911 0.039788 0.700683
v 0.684773 0.039406 0.724030
v 0.353955 0.069307 0.919941
v 0.368186 0.069654 0.948704
v -0.172719 0.008278 0.675240
v -0.177769 0.006881 0.697767
v -0.481675 0.037797 0.894498
v -0.494357 0.037129 0.922441
v -0.733063 0.008809 -0.133767
v -0.756160 0.007430 -0.137294
v -1.042019 0.038328 0.085490
v -1.072747 0.037678 0.087379
v -0.451040 0.041616 -0.928976
v -0.757556 0.070902 -0.711450
v 0.057566 0.101639 -0.686631
v 0.364082 0.072353 -0.904157
v 0.392452 0.072982 -0.887199
v 0.085935 0.102268 -0.669673
v 0.632528 0.101750 0.119480
v 0.939045 0.072464 -0.098046
v 0.944838 0.071802 -0.065682
v 0.638321 0.101088 0.151845
v 0.369792 0.069833 0.916179
v 0.676309 0.040547 0.698653
v 0.653732 0.039256 0.714059
v 0.347216 0.068541 0.931586
v -0.467906 0.037805 0.906767
v -0.161390 0.008519 0.689240
v 0.064960 0.101826 -0.665507
v -0.764517 0.070548 -0.690763
v -1.037775 0.038742 0.087032
v -0.481556 0.038215 0.890082
v 0.347921 0.069493 0.915338
v 0.621179 0.101299 0.137544
v -0.189759 0.007889 0.672283
v -0.496275 0.037175 0.889809
v -1.042868 0.037693 0.100656
v -0.736352 0.008407 -0.116871
v -0.742145 0.009069 -0.149235
v -1.048661 0.038355 0.068291
v -0.780132 0.069610 -0.696043
v -0.473616 0.040325 -0.913570
v -0.451745 0.040664 -0.912729
v 0.377732 0.071942 -0.887473
v 0.933951 0.071415 -0.084422
v 0.660693 0.039609 0.693373
v -0.168784 0.008331 0.668117
v -0.725003 0.008859 -0.134934
v -0.195460 0.040193 -0.547903
v -0.201275 0.039828 -0.564745
v -0.513051 0.070538 -0.322517
v -0.526711 0.070921 -0.333791
v 0.255419 0.057195 -0.534175
v 0.264125 0.057377 -0.550574
v -0.062172 0.087539 -0.308788
v -0.061311 0.088471 -0.319621
v 0.557763 0.056909 -0.097660
v 0.576206 0.057081 -0.100002
v 0.240172 0.087253 0.127726
v 0.250770 0.088175 0.130952
v 0.409228 0.039620 0.325126
v 0.422888 0.039236 0.336401
v 0.091637 0.069964 0.550512
v 0.097452 0.070330 0.567354
v -0.041651 0.022618 0.311398
v -0.042513 0.021687 0.322230
v -0.359242 0.052962 0.536784
v -0.367949 0.052780 0.553184
v -0.343995 0.022905 -0.125117
v -0.354594 0.021982 -0.128342
v -0.661586 0.053249 0.100270
v -0.680030 0.053076 0.102611
v -0.192420 0.040663 -0.553763
v -0.507503 0.070768 -0.330157
v -0.067689 0.087352 -0.316765
v 0.247394 0.057248 -0.540372
v 0.262701 0.057588 -0.531222
v -0.052382 0.087692 -0.307616
v 0.242542 0.087412 0.118186
v 0.557625 0.057308 -0.105420
v 0.560751 0.056951 -0.087957
v 0.245668 0.087055 0.135649
v 0.100778 0.070191 0.548059
v 0.415861 0.040086 0.324453
v 0.403680 0.039390 0.332766
v 0.088596 0.069494 0.556372
v -0.351217 0.052910 0.542981
v -0.036134 0.022805 0.319375
v -0.065227 0.087599 -0.304284
v -0.512786 0.070723 -0.317911
v -0.660228 0.053562 0.101762
v -0.360110 0.053277 0.535063
v 0.087449 0.070154 0.548690
v 0.234891 0.087315 0.129017
v -0.051441 0.022465 0.310225
v -0.366525 0.052570 0.533831
v -0.661449 0.052850 0.108030
v -0.346365 0.022745 -0.115577
v -0.349491 0.023102 -0.133040
v -0.664574 0.053207 0.090567
v -0.519684 0.070071 -0.321844
v -0.204601 0.039966 -0.545450
v -0.191273 0.040004 -0.546080
v 0.256287 0.056881 -0.532453
v 0.556404 0.056596 -0.099153
v 0.408963 0.039435 0.320520
v -0.038596 0.022558 0.306893
v -0.338714 0.022843 -0.126407
vt 1.000000 0.500000
vt 1.000000 1.000000
vt 1.000000 1.000000
vt 1.000000 0.500000
vt 1.000000 0.500000
vt 1.000000 1.000000
vt 0.833333 1.000000
vt 0.833333 1.000000
vt 0.833333 1.000000
vt 0.833333 0.500000
vt 0.833333 0.500000
vt 0.833333 0.500000
vt 0.833333 0.500000
vt 0.833333 1.000000
vt 0.666667 1.000000
vt 0.666667 1.000000
vt 0.666667 1.000000
vt 0.666667 0.500000
vt 0.666667 0.500000
vt 0.666667 0.500000
vt 0.666667 0.500000
vt 0.666667 1.000000
vt 0.500000 1.000000
vt 0.500000 1.000000
vt 0.500000 1.000000
vt 0.500000 0.500000
vt 0.500000 0.500000
vt 0.500000 0.500000
vt 0.500000 0.500000
vt 0.500000 1.000000
vt 0.333333 1.000000
vt 0.333333 1.000000
vt 0.333333 1.000000
vt 0.333333 0.500000
vt 0.333333 0.500000
vt 0.333333 0.500000
vt 0.457846 0.370000
vt 0.250000 0.490000
vt 0.250000 0.490000
vt 0.457846 0.370000
vt 0.457846 0.370000
vt 0.250000 0.490000
vt 0.042154 0.370000
vt 0.042154 0.370000
vt 0.042154 0.370000
vt 0.042154 0.130000
vt 0.042154 0.130000
vt 0.042154 0.130000
vt 0.250000 0.010000
vt 0.250000 0.010000
vt 0.250000 0.010000
vt 0.457846 0.130000
vt 0.457846 0.130000
vt 0.457846 0.130000
vt 0.333333 0.500000
vt 0.333333 1.000000
vt 0.166667 1.000000
vt 0.166667 1.000000
vt 0.166667 1.000000
vt 0.166667 0.500000
vt 0.166667 0.500000
vt 0.166667 0.500000
vt 0.166667 0.500000
vt 0.166667 1.000000
vt -0.000000 1.000000
vt -0.000000 1.000000
vt -0.000000 1.000000
vt -0.000000 0.500000
vt -0.000000 0.500000
vt -0.000000 0.500000
vt 0.750000 0.490000
vt 0.957846 0.370000
vt 0.957846 0.370000
vt 0.750000 0.490000
vt 0.750000 0.490000
vt 0.957846 0.370000
vt 0.957846 0.130000
vt 0.957846 0.130000
vt 0.957846 0.130000
vt 0.750000 0.010000
vt 0.750000 0.010000
vt 0.750000 0.010000
vt 0.542154 0.130000
vt 0.542154 0.130000
vt 0.542154 0.130000
vt 0.542154 0.370000
vt 0.542154 0.370000
vt 0.542154 0.370000
vt 1.000000 0.500000
vt 1.000000 1.000000
vt 1.000000 1.000000
vt 1.000000 0.500000
vt 1.000000 0.500000
vt 1.000000 1.000000
vt 0.833333 1.000000
vt 0.833333 1.000000
vt 0.833333 1.000000
vt 0.833333 0.500000
vt 0.833333 0.500000
vt 0.833333 0.500000
vt 0.833333 0.500000
vt 0.833333 1.000000
vt 0.666667 1.000000
vt 0.666667 1.000000
vt 0.666667 1.000000
vt 0.666667 0.500000
vt 0.666667 0.500000
vt 0.666667 0.500000
vt 0.666667 0.500000
vt 0.666667 1.000000
vt 0.500000 1.000000
vt 0.500000 1.000000
vt 0.500000 1.000000
vt 0.500000 0.500000
vt 0.500000 0.500000
vt 0.500000 0.500000
vt 0.500000 0.500000
vt 0.500000 1.000000
vt 0.333333 1.000000
vt 0.333333 1.000000
vt 0.333333 1.000000
vt 0.333333 0.500000
vt 0.333333 0.500000
vt 0.333333 0.500000
vt 0.457846 0.370000
vt 0.250000 0.490000
vt 0.250000 0.490000
vt 0.457846 0.370000
vt 0.457846 0.370000
vt 0.250000 0.490000
vt 0.042154 0.370000
vt 0.042154 0.370000
vt 0.042154 0.370000
vt 0.042154 0.130000
vt 0.042154 0.130000
vt 0.042154 0.130000
vt 0.250000 0.010000
vt 0.250000 0.010000
vt 0.250000 0.010000
vt 0.457846 0.130000
vt 0.457846 0.130000
vt 0.457846 0.130000
vt 0.333333 0.500000
vt 0.333333 1.000000
vt 0.166667 1.000000
vt 0.166667 1.000000
vt 0.166667 1.000000
vt 0.166667 0.500000
vt 0.166667 0.500000
vt 0.166667 0.500000
vt 0.166667 0.500000
vt 0.166667 1.000000
vt -0.000000 1.000000
vt -0.000000 1.000000
vt -0.000000 1.000000
vt -0.000000 0.500000
vt -0.000000 0.500000
vt -0.000000 0.500000
vt 0.750000 0.490000
vt 0.957846 0.370000
vt 0.957846 0.370000
vt 0.750000 0.490000
vt 0.750000 0.490000
vt 0.957846 0.370000
vt 0.957846 0.130000
vt 0.957846 0.130000
vt 0.957846 0.130000
vt 0.750000 0.010000
vt 0.750000 0.010000
vt 0.750000 0.010000
vt 0.542154 0.130000
vt 0.542154 0.130000
vt 0.542154 0.130000
vt 0.542154 0.370000
vt 0.542154 0.370000
vt 0.542154 0.370000
vt 0.000000 0.000000
vt 0.000000 0.000000
vt 0.000000 0.000000
vt 0.000000 0.000000
vt 0.000000 0.000000
vt 0.000000 0.000000
vt 0.000000 0.000000
vt 0.000000 0.000000
vt 0.000000 0.000000
vt 0.000000 0.000000
vt 0.000000 0.000000
vt 0.000000 0.000000
vt 0.000000 0.000000
vt 0.000000 0.000000
vt 0.000000 0.000000
vt 0.000000 0.000000
vt 0.000000 0.000000
vt 0.000000 0.000000
vt 0.000000 0.000000
vt 0.000000 0.000000
vt 0.000000 0.000000
vt 0.000000 0.000000
vt 0.000000 0.000000
vt 0.000000 0.000000
vt 0.000000 0.000000
vt 0.000000 0.000000
vt 0.000000 0.000000
vt 0.000000 0.000000
vt 0.000000 0.000000
vt 0.000000 0.000000
vt 0.000000 0.000000
vt 0.000000 0.000000
vt 0.000000 0.000000
vt 0.000000 0.000000
vt 0.000000 0.000000
vt 0.000000 0.000000
vt 0.000000 0.000000
vt 0.000000 0.000000
vt 0.000000 0.000000
vt 0.000000 0.000000
vt 0.000000 0.000000
vt 0.000000 0.000000
vt 0.000000 0.000000
vt 0.000000 0.000000
vt 0.000000 0.000000
vt 0.000000 0.000000
vt 0.000000 0.000000
vt 0.000000 0.000000
vn 0.2300 0.9533 0.1958
vn 0.0263 0.9949 -0.0969
vn 0.0381 -0.9992 -0.0136
vn 0.0409 -0.9928 -0.1122
vn -0.0528 -0.9968 0.0598
vn -0.4056 0.6354 -0.6571
vn -0.0390 0.9983 0.0431
vn -0.0371 0.9991 -0.0195
vn -0.0004 -0.9911 0.1328
vn 0.0923 0.9957 -0.0040
vn 0.0260 -0.9995 -0.0187
vn 0.1712 -0.9780 -0.1192
vn -0.1292 -0.9904 -0.0487
vn 0.0363 0.9959 -0.0829
vn -0.0549 0.9977 0.0387
vn -0.0012 1.0000 0.0015
vn -0.0756 -0.9968 0.0276
vn 0.5408 0.4680 0.6990
vn 0.0256 -0.9992 -0.0319
vn 0.1165 -0.9932 0.0003
vn -0.0941 0.9605 -0.2619
vn 0.1025 0.9947 0.0105
vn -0.0532 0.9983 0.0221
vn 0.0059 0.9991 0.0429
vn -0.2300 -0.9533 -0.1958
vn -0.0263 -0.9949 0.0969
vn 0.0390 -0.9983 -0.0431
vn 0.0371 -0.9991 0.0195
vn 0.0528 0.9968 -0.0599
vn 0.4056 -0.6354 0.6571
vn -0.0381 0.9992 0.0136
vn -0.0409 0.9928 0.1122
vn 0.0373 -0.9992 0.0131
vn -0.0388 0.9986 0.0371
vn 0.0992 -0.9950 -0.0058
vn -0.0301 0.9991 0.0303
vn 0.1291 -0.9875 -0.0901
vn -0.0302 0.9993 0.0216
vn 0.0403 -0.9948 -0.0931
vn -0.0382 0.9991 0.0184
vn 0.0003 -0.9992 -0.0408
vn -0.0476 0.9986 0.0241
vn 0.0055 -1.0000 -0.0045
vn -0.0484 0.9982 0.0342
vn 0.0004 0.9911 -0.1328
vn -0.0923 -0.9957 0.0040
vn 0.0549 -0.9977 -0.0387
vn 0.0012 -1.0000 -0.0015
vn 0.1292 0.9904 0.0487
vn -0.0363 -0.9959 0.0829
vn -0.0260 0.9995 0.0187
vn -0.1712 0.9780 0.1192
vn 0.0756 0.9968 -0.0276
vn -0.5408 -0.4680 -0.6990
vn 0.0532 -0.9983 -0.0221
vn -0.0059 -0.9991 -0.0429
vn 0.0941 -0.9605 0.2619
vn -0.1025 -0.9947 -0.0105
vn -0.0256 0.9992 0.0319
vn -0.1165 0.9932 -0.0003
vn -0.0403 0.9948 0.0931
vn 0.0382 -0.9991 -0.0184
vn -0.1291 0.9875 0.0901
vn 0.0302 -0.9993 -0.0216
vn -0.0992 0.9950 0.0058
vn 0.0301 -0.9991 -0.0303
vn -0.0373 0.9992 -0.0131
vn 0.0388 -0.9986 -0.0371
vn -0.0055 1.0000 0.0045
vn 0.0484 -0.9982 -0.0342
vn -0.0003 0.9992 0.0408
vn 0.0476 -0.9986 -0.0241
vn 0.0378 -0.9993 -0.0027
vn 0.0446 -0.9600 -0.2764
vn -0.0394 0.9974 0.0595
vn -0.0362 0.9983 -0.0467
vn 0.0171 -0.9998 -0.0125
vn 0.6881 0.5474 -0.4763
vn -0.0750 0.9958 0.0526
vn 0.0150 0.9998 -0.0098
vn 0.0153 -0.9993 -0.0355
vn 0.2591 -0.9645 0.0516
vn -0.0685 0.9975 0.0167
vn 0.0322 0.9981 0.0521
vn 0.0394 -0.9974 -0.0595
vn 0.0362 -0.9983 0.0467
vn -0.0378 0.9993 0.0027
vn -0.0446 0.9600 0.2764
vn 0.0365 -0.9986 0.0381
vn -0.0391 0.9981 0.0467
vn 0.1945 -0.9805 0.0282
vn -0.0231 0.9992 0.0327
vn 0.6259 -0.6480 -0.4340
vn -0.0238 0.9996 0.0171
vn 0.0430 -0.9787 -0.2006
vn -0.0380 0.9992 0.0109
vn -0.0238 -0.9985 -0.0492
vn -0.0566 0.9982 0.0209
vn -0.0102 -0.9999 0.0064
vn -0.0591 0.9974 0.0416
vn 0.0750 -0.9958 -0.0526
vn -0.0150 -0.9998 0.0098
vn -0.0171 0.9998 0.0125
vn -0.6881 -0.5474 0.4763
vn 0.0685 -0.9975 -0.0167
vn -0.0322 -0.9981 -0.0521
vn -0.0153 0.9993 0.0355
vn -0.2591 0.9645 -0.0516
vn -0.0430 0.9787 0.2006
vn 0.0380 -0.9992 -0.0109
vn -0.6260 0.6479 0.4340
vn 0.0238 -0.9996 -0.0171
vn -0.1945 0.9805 -0.0282
vn 0.0231 -0.9992 -0.0327
vn -0.0365 0.9986 -0.0381
vn 0.0391 -0.9981 -0.0467
vn 0.0102 0.9999 -0.0064
vn 0.0591 -0.9974 -0.0416
vn 0.0238 0.9985 0.0492
vn 0.0566 -0.9982 -0.0209
vn -0.0368 0.9990 0.0270
vn -0.0377 0.9989 0.0285
vn -0.0394 0.9988 0.0288
vn -0.0402 0.9988 0.0276
vn -0.0393 0.9989 0.0261
vn -0.0376 0.9990 0.0258
usemtl None
s off
f 25/1/1 26/2/1 3/3/1 1/4/1
f 26/2/2 25/1/2 2/5/2 4/6/2
f 26/2/3 27/7/3 7/8/3 3/3/3
f 27/7/4 26/2/4 4/6/4 8/9/4
f 27/7/5 28/10/5 5/11/5 7/8/5
f 28/10/6 27/7/6 8/9/6 6/12/6
f 28/10/7 25/1/7 1/4/7 5/11/7
f 25/1/8 28/10/8 6/12/8 2/5/8
f 29/13/9 30/14/9 7/8/9 5/11/9
f 30/14/10 29/13/10 6/12/10 8/9/10
f 30/14/11 31/15/11 11/16/11 7/8/11
f 31/15/12 30/14/12 8/9/12 12/17/12
f 31/15/13 32/18/13 9/19/13 11/16/13
f 32/18/14 31/15/14 12/17/14 10/20/14
f 32/18/15 29/13/15 5/11/15 9/19/15
f 29/13/16 32/18/16 10/20/16 6/12/16
f 33/21/17 34/22/17 11/16/17 9/19/17
f 34/22/18 33/21/18 10/20/18 12/17/18
f 34/22/19 35/23/19 15/24/19 11/16/19
f 35/23/20 34/22/20 12/17/20 16/25/20
f 35/23/21 36/26/21 13/27/21 15/24/21
f 36/26/22 35/23/22 16/25/22 14/28/22
f 36/26/23 33/21/23 9/19/23 13/27/23
f 33/21/24 36/26/24 14/28/24 10/20/24
f 37/29/25 38/30/25 15/24/25 13/27/25
f 38/30/26 37/29/26 14/28/26 16/25/26
f 38/30/27 39/31/27 19/32/27 15/24/27
f 39/31/28 38/30/28 16/25/28 20/33/28
f 39/31/29 40/34/29 17/35/29 19/32/29
f 40/34/30 39/31/30 20/33/30 18/36/30
f 40/34/31 37/29/31 13/27/31 17/35/31
f 37/29/32 40/34/32 18/36/32 14/28/32
f 41/37/33 42/38/33 3/39/33 7/40/33
f 42/38/34 41/37/34 8/41/34 4/42/34
f 42/38/35 43/43/35 23/44/35 3/39/35
f 43/43/36 42/38/36 4/42/36 24/45/36
f 43/43/37 44/46/37 19/47/37 23/44/37
f 44/46/38 43/43/38 24/45/38 20/48/38
f 44/46/39 45/49/39 15/50/39 19/47/39
f 45/49/40 44/46/40 20/48/40 16/51/40
f 45/49/41 46/52/41 11/53/41 15/50/41
f 46/52/42 45/49/42 16/51/42 12/54/42
f 46/52/43 41/37/43 7/40/43 11/53/43
f 41/37/44 46/52/44 12/54/44 8/41/44
f 47/55/45 48/56/45 19/32/45 17/35/45
f 48/56/46 47/55/46 18/36/46 20/33/46
f 48/56/47 49/57/47 23/58/47 19/32/47
f 49/57/48 48/56/48 20/33/48 24/59/48
f 49/57/49 50/60/49 21/61/49 23/58/49
f 50/60/50 49/57/50 24/59/50 22/62/50
f 50/60/51 47/55/51 17/35/51 21/61/51
f 47/55/52 50/60/52 22/62/52 18/36/52
f 51/63/53 52/64/53 23/58/53 21/61/53
f 52/64/54 51/63/54 22/62/54 24/59/54
f 52/64/55 53/65/55 3/66/55 23/58/55
f 53/65/56 52/64/56 24/59/56 4/67/56
f 53/65/57 54/68/57 1/69/57 3/66/57
f 54/68/58 53/65/58 4/67/58 2/70/58
f 54/68/59 51/63/59 21/61/59 1/69/59
f 51/63/60 54/68/60 2/70/60 22/62/60
f 55/71/61 56/72/61 5/73/61 1/74/61
f 56/72/62 55/71/62 2/75/62 6/76/62
f 56/72/63 57/77/63 9/78/63 5/73/63
f 57/77/64 56/72/64 6/76/64 10/79/64
f 57/77/65 58/80/65 13/81/65 9/78/65
f 58/80/66 57/77/66 10/79/66 14/82/66
f 58/80/67 59/83/67 17/84/67 13/81/67
f 59/83/68 58/80/68 14/82/68 18/85/68
f 59/83/69 60/86/69 21/87/69 17/84/69
f 60/86/70 59/83/70 18/85/70 22/88/70
f 60/86/71 55/71/71 1/74/71 21/87/71
f 55/71/72 60/86/72 22/88/72 2/75/72
f 85/89/1 86/90/1 63/91/1 61/92/1
f 86/90/2 85/89/2 62/93/2 64/94/2
f 86/90/73 87/95/73 67/96/73 63/91/73
f 87/95/74 86/90/74 64/94/74 68/97/74
f 87/95/5 88/98/5 65/99/5 67/96/5
f 88/98/6 87/95/6 68/97/6 66/100/6
f 88/98/75 85/89/75 61/92/75 65/99/75
f 85/89/76 88/98/76 66/100/76 62/93/76
f 89/101/9 90/102/9 67/96/9 65/99/9
f 90/102/10 89/101/10 66/100/10 68/97/10
f 90/102/77 91/103/77 71/104/77 67/96/77
f 91/103/78 90/102/78 68/97/78 72/105/78
f 91/103/13 92/106/13 69/107/13 71/104/13
f 92/106/14 91/103/14 72/105/14 70/108/14
f 92/106/79 89/101/79 65/99/79 69/107/79
f 89/101/80 92/106/80 70/108/80 66/100/80
f 93/109/17 94/110/17 71/104/17 69/107/17
f 94/110/18 93/109/18 70/108/18 72/105/18
f 94/110/81 95/111/81 75/112/81 71/104/81
f 95/111/82 94/110/82 72/105/82 76/113/82
f 95/111/21 96/114/21 73/115/21 75/112/21
f 96/114/22 95/111/22 76/113/22 74/116/22
f 96/114/83 93/109/83 69/107/83 73/115/83
f 93/109/84 96/114/84 74/116/84 70/108/84
f 97/117/25 98/118/25 75/112/25 73/115/25
f 98/118/26 97/117/26 74/116/26 76/113/26
f 98/118/85 99/119/85 79/120/85 75/112/85
f 99/119/86 98/118/86 76/113/86 80/121/86
f 99/119/29 100/122/29 77/123/29 79/120/29
f 100/122/30 99/119/30 80/121/30 78/124/30
f 100/122/87 97/117/87 73/115/87 77/123/87
f 97/117/88 100/122/88 78/124/88 74/116/88
f 101/125/89 102/126/89 63/127/89 67/128/89
f 102/126/90 101/125/90 68/129/90 64/130/90
f 102/126/91 103/131/91 83/132/91 63/127/91
f 103/131/92 102/126/92 64/130/92 84/133/92
f 103/131/93 104/134/93 79/135/93 83/132/93
f 104/134/94 103/131/94 84/133/94 80/136/94
f 104/134/95 105/137/95 75/138/95 79/135/95
f 105/137/96 104/134/96 80/136/96 76/139/96
f 105/137/97 106/140/97 71/141/97 75/138/97
f 106/140/98 105/137/98 76/139/98 72/142/98
f 106/140/99 101/125/99 67/128/99 71/141/99
f 101/125/100 106/140/100 72/142/100 68/129/100
f 107/143/45 108/144/45 79/120/45 77/123/45
f 108/144/46 107/143/46 78/124/46 80/121/46
f 108/144/101 109/145/101 83/146/101 79/120/101
f 109/145/102 108/144/102 80/121/102 84/147/102
f 109/145/49 110/148/49 81/149/49 83/146/49
f 110/148/50 109/145/50 84/147/50 82/150/50
f 110/148/103 107/143/103 77/123/103 81/149/103
f 107/143/104 110/148/104 82/150/104 78/124/104
f 111/151/53 112/152/53 83/146/53 81/149/53
f 112/152/54 111/151/54 82/150/54 84/147/54
f 112/152/105 113/153/105 63/154/105 83/146/105
f 113/153/106 112/152/106 84/147/106 64/155/106
f 113/153/57 114/156/57 61/157/57 63/154/57
f 114/156/58 113/153/58 64/155/58 62/158/58
f 114/156/107 111/151/107 81/149/107 61/157/107
f 111/151/108 114/156/108 62/158/108 82/150/108
f 115/159/109 116/160/109 65/161/109 61/162/109
f 116/160/110 115/159/110 62/163/110 66/164/110
f 116/160/111 117/165/111 69/166/111 65/161/111
f 117/165/112 116/160/112 66/164/112 70/167/112
f 117/165/113 118/168/113 73/169/113 69/166/113
f 118/168/114 117/165/114 70/167/114 74/170/114
f 118/168/115 119/171/115 77/172/115 73/169/115
f 119/171/116 118/168/116 74/170/116 78/173/116
f 119/171/117 120/174/117 81/175/117 77/172/117
f 120/174/118 119/171/118 78/173/118 82/176/118
f 120/174/119 115/159/119 61/162/119 81/175/119
f 115/159/120 120/174/120 82/176/120 62/163/120
f 34/177/121 31/178/121 91/179/121 94/180/121
f 38/181/122 35/182/122 95/183/122 98/184/122
f 48/185/123 39/186/123 99/187/123 108/188/123
f 52/189/124 49/190/124 109/191/124 112/192/124
f 53/193/125 113/194/125 86/195/125 26/196/125
f 30/197/126 27/198/126 87/199/126 90/200/126
f 29/201/123 28/202/123 88/203/123 89/204/123
f 33/205/124 32/206/124 92/207/124 93/208/124
f 37/209/125 36/210/125 96/211/125 97/212/125
f 47/213/126 40/214/126 100/215/126 107/216/126
f 51/217/121 50/218/121 110/219/121 111/220/121
f 54/221/122 114/222/122 85/223/122 25/224/122
